<svg xmlns="http://www.w3.org/2000/svg" viewBox="0 0 1280 920" role="img" aria-label="IoT Deployment Architecture architecture diagram">
  <defs>
    <marker id="arrowhead" markerWidth="12" markerHeight="12" refX="10" refY="4" orient="auto">
      <polygon points="0 0, 12 4, 0 8" fill="#00646E"/>
    </marker>
  </defs>
  <rect width="1280" height="920" fill="#000028" rx="22" ry="22"/>
  <g>
    <text x="640" y="56" text-anchor="middle" fill="#FFFFFF" font-size="29" font-weight="700" font-family="Segoe UI, Roboto, sans-serif">IoT Deployment Architecture</text>
    <line x1="360" y1="78" x2="920" y2="78" stroke="#9C27B0" stroke-width="2.4" opacity="0.85"/>
  </g>
  <line x1="640.0" y1="269.25" x2="640.0" y2="335.75" stroke="#00646E" stroke-width="3" opacity="0.95" marker-end="url(#arrowhead)"/>
  <rect x="597.0" y="288.5" width="86" height="28" rx="6" fill="#000028" stroke="#00646E" stroke-width="1.4" opacity="0.97"/>
  <text x="640.0" y="307.5" text-anchor="middle" fill="#FFFFFF" font-size="14" font-family="Segoe UI, Roboto, sans-serif" font-weight="700">HTTPS</text>
  <line x1="640.0" y1="594.25" x2="640.0" y2="660.75" stroke="#00646E" stroke-width="3" opacity="0.95" stroke-dasharray="6 6" marker-end="url(#arrowhead)"/>
  <rect x="597.0" y="613.5" width="86" height="28" rx="6" fill="#000028" stroke="#00646E" stroke-width="1.4" opacity="0.97"/>
  <text x="640.0" y="632.5" text-anchor="middle" fill="#FFFFFF" font-size="14" font-family="Segoe UI, Roboto, sans-serif" font-weight="700">Modbus</text>
  <rect x="480.0" y="335.75" width="320" height="96" rx="10" ry="10" fill="#9C27B0" stroke="#7B1FA2" stroke-width="2.8"/>
  <text x="640.0" y="389.75" text-anchor="middle" fill="#FFFFFF" font-size="16" font-family="Segoe UI, Roboto, sans-serif" font-weight="700">Cloud Platform</text>
  <rect x="480.0" y="660.75" width="320" height="96" rx="10" ry="10" fill="#009999" stroke="#00646E" stroke-width="2.8"/>
  <text x="640.0" y="714.75" text-anchor="middle" fill="#FFFFFF" font-size="16" font-family="Segoe UI, Roboto, sans-serif" font-weight="700">edge devices</text>
  <rect x="480.0" y="173.25" width="320" height="96" rx="10" ry="10" fill="#0288D1" stroke="#0277BD" stroke-width="2.8"/>
  <text x="640.0" y="227.25" text-anchor="middle" fill="#FFFFFF" font-size="16" font-family="Segoe UI, Roboto, sans-serif" font-weight="700">MQTT Gateway</text>
  <rect x="480.0" y="498.25" width="320" height="96" rx="10" ry="10" fill="#4CAF50" stroke="#388E3C" stroke-width="2.8"/>
  <text x="640.0" y="542.25" text-anchor="middle" fill="#FFFFFF" font-size="15" font-family="Segoe UI, Roboto, sans-serif" font-weight="700">PLCs at the field</text>
  <text x="640.0" y="564.25" text-anchor="middle" fill="#FFFFFF" font-size="15" font-family="Segoe UI, Roboto, sans-serif" font-weight="700">level</text>
  <rect x="970" y="802" width="280" height="92" rx="10" fill="#0A1938" stroke="#355C7D" stroke-width="1.6" opacity="0.95"/>
  <text x="986" y="822" fill="#FFFFFF" font-size="13" font-family="Segoe UI, Roboto, sans-serif" font-weight="700">Legend</text>
  <rect x="984" y="832" width="14" height="14" rx="3" fill="#9C27B0" stroke="#7B1FA2" stroke-width="1"/>
  <text x="1006" y="843" fill="#FFFFFF" font-size="12" font-family="Segoe UI, Roboto, sans-serif">Cloud Service</text>
  <rect x="984" y="852" width="14" height="14" rx="3" fill="#0288D1" stroke="#0277BD" stroke-width="1"/>
  <text x="1006" y="863" fill="#FFFFFF" font-size="12" font-family="Segoe UI, Roboto, sans-serif">Gateway</text>
  <rect x="984" y="872" width="14" height="14" rx="3" fill="#009999" stroke="#00646E" stroke-width="1"/>
  <text x="1006" y="883" fill="#FFFFFF" font-size="12" font-family="Segoe UI, Roboto, sans-serif">Application</text>
  <rect x="1108" y="832" width="14" height="14" rx="3" fill="#4CAF50" stroke="#388E3C" stroke-width="1"/>
  <text x="1130" y="843" fill="#FFFFFF" font-size="12" font-family="Segoe UI, Roboto, sans-serif">Device</text>
  <rect x="1108" y="852" width="14" height="14" rx="3" fill="#616161" stroke="#424242" stroke-width="1"/>
  <text x="1130" y="863" fill="#FFFFFF" font-size="12" font-family="Segoe UI, Roboto, sans-serif">Database</text>
</svg>